<?xml version="1.0" standalone="no"?><!DOCTYPE svg PUBLIC "-//W3C//DTD SVG 1.1//EN" "http://www.w3.org/Graphics/SVG/1.1/DTD/svg11.dtd"><svg t="1657531738243" class="icon" viewBox="0 0 1024 1024" version="1.1" xmlns="http://www.w3.org/2000/svg" p-id="6182" xmlns:xlink="http://www.w3.org/1999/xlink" width="200" height="200"><defs><style type="text/css"></style></defs><path d="M269.216 581.998c1.782-0.282 3.562-0.594 5.344-0.906l-7.906-41.936c-101.028 19.124-230.526-85.282-231.806-86.312a21.272 21.272 0 0 0-23.282-2.438 21.248 21.248 0 0 0-11.5 20.376c0.218 3.156 5.624 78.282 37.438 167.654 18.78 52.81 42.998 99.686 71.904 139.246 36.594 50.156 80.874 88.688 131.592 114.532l19.376-38a294.958 294.958 0 0 1-8.188-4.344l17.028-267.872z" fill="#FFCE54" p-id="6183"></path><path d="M31.536 620.904c36.498 17.906 83.186 35.75 130.53 40.344l4.094-42.468c-57.594-5.562-116.344-34.938-150.654-54.966a728.064 728.064 0 0 0 16.03 57.09z" fill="#F6BB42" p-id="6184"></path><path d="M1004.862 396.096L979.8 333.44c-3.25-8.094-11.094-13.438-19.812-13.438h-89.592a21.344 21.344 0 0 0-20.218 14.562l-18.532 55.092c-2.156 6.438-1.156 13.468 2.718 19.03s10.156 8.938 16.906 9.094l84 2.25 47.436 5.188c0.782 0.094 1.562 0.124 2.344 0.124 6.624 0 12.906-3.094 16.968-8.406a21.37 21.37 0 0 0 2.844-20.84z" fill="#DA4453" p-id="6185"></path><path d="M1019.862 256.066a21.344 21.344 0 0 0-22.032-8.156l-63.936 14.812-60.376 2.188c-10.906 0.406-19.75 8.936-20.5 19.812l-3.906 55.124a21.426 21.426 0 0 0 5.656 16.062 21.45 21.45 0 0 0 15.624 6.782h89.592c7.562 0 14.562-4 18.406-10.532l42.656-72.656c4.314-7.374 3.844-16.592-1.184-23.436z" fill="#ED5564" p-id="6186"></path><path d="M826.332 538.124c-29.968-33.594-55.812-62.624-53.312-107.594 0.5-9.438-2.718-18.342-9.156-25.124-10.532-11.156-28.404-16.092-57.996-16.092-29.344 0-67.466 4.906-101.124 9.25-27.5 3.532-53.468 6.874-69.062 6.874-4.438 0-6.718-0.282-7.688-0.438a27.758 27.758 0 0 0-5.062-0.438c-8.282 0-16.032 3.532-21.75 9.968-9.53 10.718-13.498 29.78-12.874 61.812 0.094 5.156 0.312 10.156 0.594 14.75-85.812 3.062-171.904 22.968-239.34 55.656-36.094 17.5-64.938 37.53-85.748 59.56-23.5 24.876-35.438 50.876-35.438 77.25v0.25c0 42.81 0 114.402 53.466 173.59 28.906 32.032 70.376 56.81 123.216 73.716 59.938 19.156 136.716 28.876 228.278 28.876 65.876 0 120.248-5.406 166.31-16.594 46.842-11.344 83.964-28.406 113.528-52.092 28.906-23.156 50.406-53.156 63.876-89.188 12.562-33.532 18.656-72.624 18.656-119.528 0.002-66.684-36.874-107.996-69.374-144.464z" fill="#F6BB42" p-id="6187"></path><path d="M661.336 64.008c-129.404 0-234.684 105.28-234.684 234.682 0 129.372 105.28 234.654 234.684 234.654 129.372 0 234.652-105.282 234.652-234.654 0-129.402-105.28-234.682-234.652-234.682z" fill="#FFCE54" p-id="6188"></path><path d="M746.646 256.036c0 11.782-9.532 21.342-21.312 21.342-11.78 0-21.342-9.562-21.342-21.342s9.562-21.344 21.342-21.344c11.782 0 21.312 9.562 21.312 21.344z" p-id="6189"></path><path d="M693.836 670.874c-15.782-25.844-42.624-44.624-73.592-51.532-5.876-1.282-13.532-1.938-23.406-1.938-58.25 0-187.342 22.344-192.81 23.282-8.592 1.5-15.436 8.062-17.216 16.594a21.32 21.32 0 0 0 9 22.156l9.248 6.186c-10.186 2.782-21.28 5.844-32.342 9.062-23.124 6.656-41.844 12.562-55.656 17.5-26.376 9.468-35.624 15.5-39.562 25.876a22.77 22.77 0 0 0 2.438 20.936 21.266 21.266 0 0 0 5.532 5.562c3.906 2.688 97.5 65.562 276.028 65.562 3.406 0 6.812 0 10.282-0.062 31.75-0.406 58.968-6.124 80.874-17 27.5-13.594 45.844-35.344 53.062-62.876 7.058-26.998 2.838-55.186-11.88-79.308z" fill="#FFCE54" p-id="6190"></path></svg>